<svg width="74" height="109" viewBox="0 0 74 109" fill="none" xmlns="http://www.w3.org/2000/svg">
<rect width="74" height="109" rx="20" fill="#B6BFD7"/>
<rect x="12" y="18" width="50" height="12" fill="white"/>
<circle cx="18" cy="47" r="6" fill="white"/>
<circle cx="56" cy="67" r="6" fill="white"/>
<circle cx="56" cy="90" r="6" fill="white"/>
<circle cx="37" cy="67" r="6" fill="white"/>
<circle cx="18" cy="67" r="6" fill="white"/>
<circle cx="56" cy="47" r="6" fill="white"/>
<circle cx="37" cy="47" r="6" fill="white"/>
<line x1="18" y1="90" x2="37" y2="90" stroke="white" stroke-width="12" stroke-linecap="round"/>
<path d="M46.72 23.136C47.0347 23.1947 47.2933 23.352 47.496 23.608C47.6987 23.864 47.8 24.1573 47.8 24.488C47.8 24.7867 47.7253 25.0507 47.576 25.28C47.432 25.504 47.2213 25.68 46.944 25.808C46.6667 25.936 46.3387 26 45.96 26H43.552V20.416H45.856C46.2347 20.416 46.56 20.4773 46.832 20.6C47.1093 20.7227 47.3173 20.8933 47.456 21.112C47.6 21.3307 47.672 21.5787 47.672 21.856C47.672 22.1813 47.584 22.4533 47.408 22.672C47.2373 22.8907 47.008 23.0453 46.72 23.136ZM44.672 22.72H45.696C45.9627 22.72 46.168 22.6613 46.312 22.544C46.456 22.4213 46.528 22.248 46.528 22.024C46.528 21.8 46.456 21.6267 46.312 21.504C46.168 21.3813 45.9627 21.32 45.696 21.32H44.672V22.72ZM45.8 25.088C46.072 25.088 46.2827 25.024 46.432 24.896C46.5867 24.768 46.664 24.5867 46.664 24.352C46.664 24.112 46.584 23.9253 46.424 23.792C46.264 23.6533 46.048 23.584 45.776 23.584H44.672V25.088H45.8ZM49.8126 25.112H51.6526V26H48.6926V20.416H49.8126V25.112ZM52.0925 23.2C52.0925 22.6507 52.2152 22.16 52.4605 21.728C52.7112 21.2907 53.0498 20.952 53.4765 20.712C53.9085 20.4667 54.3912 20.344 54.9245 20.344C55.5485 20.344 56.0952 20.504 56.5645 20.824C57.0338 21.144 57.3618 21.5867 57.5485 22.152H56.2605C56.1325 21.8853 55.9512 21.6853 55.7165 21.552C55.4872 21.4187 55.2205 21.352 54.9165 21.352C54.5912 21.352 54.3005 21.4293 54.0445 21.584C53.7938 21.7333 53.5965 21.9467 53.4525 22.224C53.3138 22.5013 53.2445 22.8267 53.2445 23.2C53.2445 23.568 53.3138 23.8933 53.4525 24.176C53.5965 24.4533 53.7938 24.6693 54.0445 24.824C54.3005 24.9733 54.5912 25.048 54.9165 25.048C55.2205 25.048 55.4872 24.9813 55.7165 24.848C55.9512 24.7093 56.1325 24.5067 56.2605 24.24H57.5485C57.3618 24.8107 57.0338 25.256 56.5645 25.576C56.1005 25.8907 55.5538 26.048 54.9245 26.048C54.3912 26.048 53.9085 25.928 53.4765 25.688C53.0498 25.4427 52.7112 25.104 52.4605 24.672C52.2152 24.24 52.0925 23.7493 52.0925 23.2Z" fill="#B6BFD7"/>
</svg>
